<svg aria-hidden="true" style="position: absolute; width: 0; height: 0; overflow: hidden;" version="1.1" xmlns="http://www.w3.org/2000/svg" xmlns:xlink="http://www.w3.org/1999/xlink">
<defs>
<symbol id="icon-logo" viewBox="0 0 85 32">
<path d="M14.018 0.292c-0.167 0-0.342 0-0.507 0.020-1.914 0.16-3.674 0.973-4.926 2.454-1.363 1.612-1.693 3.311-1.677 5.364l-3.647-0.006c-0.163-0-0.332-0.005-0.504-0.010-0.476-0.013-0.97-0.027-1.416 0.055-0.269 0.049-0.503 0.18-0.692 0.377-0.331 0.345-0.339 0.78-0.318 1.226 0.034 0.703 0.094 1.407 0.155 2.11 0.033 0.383 0.066 0.765 0.094 1.147l0.605 7.822 0.295 3.777c0.014 0.186 0.026 0.375 0.038 0.564 0.042 0.676 0.084 1.362 0.262 2.009 0.308 1.1 0.919 2.090 1.764 2.86 0.738 0.67 1.629 1.148 2.596 1.391 0.818 0.197 1.767 0.175 2.66 0.154 0.266-0.006 0.526-0.012 0.776-0.012l9.198 0c0.234 0 0.476 0.006 0.72 0.012 0.792 0.019 1.618 0.038 2.358-0.134 1.041-0.242 2.095-0.814 2.855-1.568 0.707-0.702 1.273-1.639 1.52-2.607 0.189-0.741 0.236-1.553 0.282-2.341 0.015-0.254 0.030-0.506 0.049-0.751l0.402-5.181 0.502-6.361c0.024-0.314 0.056-0.632 0.087-0.95 0.068-0.69 0.137-1.385 0.135-2.066-0.001-0.419-0.090-0.81-0.39-1.122-0.207-0.215-0.545-0.319-0.831-0.366-0.429-0.070-0.899-0.057-1.354-0.045-0.168 0.004-0.334 0.009-0.495 0.009-1.147-0.002-2.295 0.002-3.442 0.012l-0.049 0.001c0.027-2.198-0.462-4.084-2.043-5.692-1.32-1.368-3.137-2.144-5.039-2.152l-0.024 0zM20.969 12.83l0.062 0.004c0.002 0.004 0.003 0.008 0.005 0.012 0.001 0.002 0.002 0.004 0.002 0.005 0.003 0.007 0.005 0.012 0.007 0.017l0.003 0.006c0.011 0.026 0.013 0.030 0.013 0.072-0.020 2.695-0.741 6.165-2.654 8.14-1.771 1.828-4.522 2.725-7.031 2.775 1.168-2.198 3.046-4.282 4.983-5.83 0.299-0.239 0.613-0.455 0.927-0.672 0.202-0.139 0.404-0.279 0.603-0.424 0.193-0.141 0.452-0.333 0.48-0.591 0.025-0.237-0.101-0.422-0.25-0.591-0.208-0.121-0.361-0.171-0.599-0.101-0.338 0.099-0.678 0.349-0.985 0.574-0.081 0.060-0.16 0.118-0.236 0.171-2.483 1.759-4.547 4.045-6.043 6.694-0.050-2.156 0.44-3.962 1.763-5.696 1.984-2.602 5.782-4.132 8.952-4.564zM1.691 9.474l24.639-0c-0.087 0.83-0.144 1.667-0.201 2.503-0.032 0.466-0.063 0.932-0.1 1.395l-0.663 8.314-0.248 3.064c-0.011 0.133-0.021 0.267-0.031 0.401-0.040 0.529-0.080 1.062-0.182 1.579-0.105 0.531-0.308 0.993-0.583 1.456-0.106 0.161-0.221 0.316-0.345 0.465-0.714 0.854-1.887 1.489-3 1.573-0.606 0.046-1.23 0.034-1.849 0.023-0.267-0.005-0.534-0.010-0.798-0.010l-9.18 0c-0.196 0-0.396 0.004-0.597 0.008-0.617 0.013-1.249 0.026-1.841-0.076-0.778-0.136-1.504-0.478-2.104-0.992-0.718-0.605-1.233-1.416-1.476-2.323-0.166-0.601-0.208-1.242-0.248-1.871-0.010-0.158-0.020-0.315-0.033-0.471l-0.242-3.117-0.918-11.921zM21.517 11.385l-0.018 0.002c-3.74 0.433-7.998 1.971-10.416 5.001-1.554 1.947-2.403 4.48-2.122 6.974 0.062 0.548 0.186 1.071 0.364 1.592-0.020 0.052-0.045 0.114-0.073 0.184-0.307 0.771-1.020 2.565-0.772 3.095 0.072 0.153 0.218 0.256 0.376 0.306 0.065 0.020 0.131 0.032 0.199 0.040 0.21-0.034 0.403-0.078 0.529-0.265 0.135-0.202 0.274-0.686 0.393-1.1 0.057-0.197 0.108-0.379 0.153-0.506 0.154-0.436 0.328-0.866 0.502-1.295l0.002-0.005c0.020-0.050 0.041-0.1 0.061-0.151 3.084 0.009 6.378-0.956 8.609-3.158 2.495-2.462 3.124-6.433 3.129-9.793 0-0.265-0.018-0.579-0.212-0.782-0.119-0.125-0.299-0.162-0.465-0.159-0.080 0.002-0.161 0.010-0.241 0.019zM13.718 1.639c0.119-0.007 0.239-0.014 0.359-0.013 1.465 0.010 2.932 0.665 3.961 1.698 1.402 1.406 1.688 2.898 1.691 4.806l-11.407 0.005c-0.046-1.64 0.218-3.138 1.294-4.433 1.034-1.244 2.509-1.919 4.102-2.062z"></path>
<path d="M21.031 12.833l-0.062-0.004c-3.17 0.432-6.968 1.961-8.952 4.564-1.322 1.734-1.813 3.54-1.763 5.696 1.496-2.65 3.559-4.936 6.043-6.694 0.076-0.053 0.155-0.111 0.236-0.171 0.307-0.225 0.647-0.475 0.985-0.574 0.238-0.070 0.39-0.019 0.599 0.101 0.149 0.17 0.275 0.354 0.25 0.591-0.027 0.258-0.287 0.45-0.48 0.591-0.198 0.146-0.401 0.285-0.603 0.424-0.314 0.216-0.627 0.433-0.927 0.672-1.937 1.548-3.814 3.632-4.983 5.83 2.509-0.050 5.259-0.947 7.031-2.775 1.913-1.974 2.634-5.444 2.654-8.139 0.001-0.041-0.001-0.046-0.013-0.072-0.003-0.006-0.006-0.014-0.010-0.023-0.002-0.005-0.004-0.011-0.007-0.017zM21.498 11.387l0.018-0.002c0.080-0.009 0.16-0.017 0.241-0.019 0.167-0.004 0.346 0.034 0.465 0.159 0.194 0.203 0.212 0.517 0.212 0.782-0.005 3.36-0.634 7.331-3.129 9.793-2.231 2.201-5.525 3.167-8.609 3.158-0.020 0.050-0.041 0.1-0.061 0.151l-0.002 0.005c-0.174 0.429-0.349 0.858-0.502 1.295-0.045 0.128-0.097 0.309-0.153 0.506-0.119 0.414-0.257 0.898-0.393 1.1-0.126 0.187-0.32 0.231-0.529 0.265-0.068-0.008-0.134-0.020-0.199-0.040-0.159-0.050-0.305-0.153-0.376-0.306-0.248-0.53 0.465-2.324 0.772-3.095 0.028-0.071 0.053-0.133 0.073-0.184-0.179-0.521-0.303-1.044-0.364-1.592-0.28-2.494 0.569-5.027 2.122-6.974 2.418-3.030 6.675-4.568 10.416-5.001z"></path>
<path d="M21.516 11.385l-0.018 0.002c-3.74 0.433-7.998 1.971-10.416 5.001-1.554 1.947-2.403 4.48-2.122 6.974 0.062 0.548 0.186 1.071 0.364 1.592-0.020 0.052-0.045 0.114-0.073 0.184-0.307 0.771-1.020 2.565-0.772 3.095 0.072 0.153 0.218 0.256 0.376 0.306 0.065 0.020 0.131 0.032 0.199 0.040 0.209-0.034 0.403-0.078 0.529-0.265 0.135-0.202 0.274-0.686 0.393-1.1 0.057-0.197 0.108-0.379 0.153-0.507 0.154-0.436 0.328-0.866 0.502-1.295 0.001-0.002 0.001-0.003 0.002-0.005 0.020-0.050 0.041-0.1 0.061-0.151 3.084 0.009 6.378-0.956 8.609-3.158 2.495-2.462 3.124-6.433 3.129-9.793 0-0.265-0.018-0.579-0.212-0.782-0.119-0.125-0.299-0.162-0.465-0.159-0.080 0.002-0.161 0.010-0.241 0.019zM20.969 12.83l0.062 0.004c0.002 0.006 0.005 0.012 0.007 0.017 0.004 0.009 0.007 0.017 0.010 0.023 0.011 0.026 0.013 0.030 0.013 0.072-0.020 2.695-0.741 6.165-2.654 8.14-1.771 1.828-4.522 2.725-7.031 2.775 1.168-2.198 3.046-4.282 4.983-5.83 0.299-0.239 0.613-0.455 0.927-0.672 0.202-0.139 0.404-0.279 0.603-0.424 0.193-0.141 0.452-0.333 0.479-0.591 0.025-0.238-0.101-0.422-0.25-0.591-0.208-0.121-0.361-0.171-0.599-0.101-0.338 0.099-0.678 0.349-0.985 0.574-0.081 0.060-0.16 0.118-0.236 0.171-2.483 1.759-4.547 4.045-6.043 6.694-0.050-2.156 0.441-3.962 1.763-5.696 1.984-2.602 5.782-4.132 8.952-4.564z"></path>
<path d="M69.674 20.519c-0.094-2.649-2.317-4.721-4.965-4.628s-4.722 2.317-4.629 4.966c0.094 2.65 2.317 4.722 4.967 4.628s4.721-2.317 4.627-4.966zM64.876 17.331c0.773 0.031 1.399 0.217 1.988 0.739 0.702 0.621 1.094 1.519 1.145 2.449s-0.241 1.874-0.875 2.567c-0.579 0.634-1.301 0.917-2.147 0.959-0.772-0.008-1.409-0.128-2.018-0.635-0.711-0.592-1.113-1.468-1.189-2.382-0.078-0.95 0.17-1.933 0.801-2.662 0.626-0.723 1.365-0.972 2.294-1.035z"></path>
<path d="M56.334 20.121c-0.316-2.634-2.709-4.512-5.343-4.191-2.627 0.32-4.498 2.706-4.183 5.333s2.698 4.503 5.325 4.193c2.635-0.311 4.517-2.701 4.201-5.335zM51.145 17.37c0.768-0.063 1.465 0.018 2.114 0.465 0.729 0.501 1.187 1.275 1.339 2.14 0.172 0.982 0.010 2.032-0.58 2.85-0.517 0.716-1.163 1.072-2.024 1.209-0.786 0.040-1.481-0.008-2.143-0.476-0.714-0.503-1.196-1.273-1.335-2.135-0.16-0.951 0.032-2.046 0.6-2.838 0.499-0.695 1.196-1.081 2.031-1.214z"></path>
<path d="M79.737 15.885c-0.024 0.001-0.047 0.003-0.071 0.005-1.208 0.143-2.296 0.728-3.056 1.686-0.867 1.095-1.164 2.483-0.993 3.856 0.14 1.206 0.757 2.305 1.713 3.054 1.132 0.88 2.568 1.103 3.968 0.912 0.81-0.111 2.027-0.499 2.543-1.172 0.146-0.189 0.219-0.42 0.185-0.659-0.024-0.168-0.097-0.328-0.235-0.431-0.159-0.118-0.371-0.133-0.559-0.096-0.262 0.051-0.496 0.213-0.72 0.366-0.047 0.032-0.093 0.064-0.139 0.095-0.977 0.508-2.061 0.747-3.136 0.398-0.765-0.252-1.397-0.801-1.752-1.524-0.185-0.369-0.278-0.762-0.36-1.164h4.612c0.192 0 0.398 0.007 0.609 0.014 0.547 0.018 1.132 0.036 1.615-0.050 0.138-0.025 0.269-0.098 0.369-0.196 0.226-0.221 0.267-0.534 0.26-0.835-0.026-1.155-0.569-2.295-1.409-3.077-0.971-0.903-2.141-1.242-3.446-1.183zM79.88 17.329c0.7-0.082 1.406 0.096 1.983 0.502 0.69 0.49 1.051 1.186 1.197 2.005-0.584 0.007-1.17 0.006-1.755 0.004-0.292-0.001-0.585-0.002-0.877-0.001l-3.243 0.004c0.149-0.499 0.321-0.952 0.64-1.37 0.514-0.673 1.226-1.034 2.056-1.143z"></path>
<path d="M54.053 12.456c1.731-0.041 3.471-0.003 5.203-0.006 0.986-0.002 2.247-0.082 3.205 0.017 0.154 0.016 0.277 0.060 0.394 0.162 0.167 0.146 0.278 0.365 0.283 0.588 0.005 0.201-0.118 0.432-0.263 0.567-0.111 0.102-0.243 0.143-0.389 0.167-0.399 0.064-0.839 0.027-1.243 0.026l-2.149-0.004-0.001 7.976c0.003 0.672 0.088 2.138-0.013 2.71-0.032 0.179-0.097 0.358-0.22 0.496-0.133 0.148-0.316 0.222-0.513 0.226-0.207 0.005-0.408-0.041-0.557-0.191-0.175-0.176-0.239-0.434-0.261-0.674-0.040-0.443-0.003-0.911 0.002-1.356 0.008-0.658 0.002-1.317 0.001-1.975l0.005-7.213c-0.715 0.003-3.189 0.117-3.695-0.113-0.185-0.084-0.301-0.213-0.368-0.406-0.072-0.205-0.039-0.423 0.065-0.611 0.121-0.22 0.283-0.314 0.516-0.386z"></path>
<path d="M42.731 15.892c0.643-0.036 1.271 0.005 1.895 0.172 0.659 0.177 1.667 0.565 2.008 1.191 0.094 0.172 0.143 0.378 0.076 0.569-0.068 0.194-0.252 0.343-0.438 0.419-0.542 0.222-1.221-0.525-1.731-0.717-0.829-0.313-1.827-0.295-2.634 0.081-0.741 0.346-1.274 1.002-1.55 1.763-0.32 0.884-0.347 2.036 0.059 2.897 0.377 0.798 1.071 1.356 1.894 1.647 0.942 0.333 1.923 0.156 2.803-0.266 0.273-0.148 0.52-0.344 0.831-0.409 0.161-0.033 0.319-0.016 0.456 0.079 0.169 0.117 0.305 0.348 0.327 0.552 0.021 0.191-0.053 0.367-0.172 0.514-0.515 0.638-1.661 0.959-2.441 1.055-1.354 0.166-2.764-0.105-3.847-0.969-1.018-0.796-1.666-1.974-1.793-3.26-0.134-1.281 0.242-2.564 1.046-3.571 0.815-1.003 1.928-1.609 3.21-1.747z"></path>
<path d="M71.643 13.47c0.027-0.001 0.054-0.003 0.080-0.003 0.24-0.008 0.481 0.057 0.651 0.234 0.405 0.423 0.244 1.847 0.239 2.43 0.551 0.003 1.892-0.168 2.305 0.199 0.149 0.133 0.21 0.318 0.211 0.515 0.001 0.191-0.049 0.374-0.19 0.508-0.386 0.366-1.78 0.222-2.326 0.218 0.005 1.171-0.153 4.782 0.208 5.671 0.584 1.437 1.849 0.173 2.57 0.513 0.154 0.073 0.281 0.226 0.338 0.386 0.081 0.228 0.009 0.431-0.085 0.64-0.016 0.018-0.032 0.035-0.048 0.052-0.436 0.454-1.255 0.563-1.856 0.572-0.698 0.010-1.358-0.108-1.873-0.625-0.372-0.373-0.604-0.885-0.717-1.395-0.175-0.787-0.103-1.659-0.102-2.461l0.002-3.353c-0.423-0-0.847-0.003-1.27-0.010-0.070-0.044-0.138-0.088-0.199-0.144-0.167-0.151-0.243-0.375-0.249-0.597-0.005-0.185 0.052-0.368 0.19-0.496 0.342-0.317 1.094-0.203 1.529-0.196-0.001-0.61-0.135-1.703 0.095-2.24 0.102-0.238 0.27-0.325 0.499-0.42z"></path>
<path d="M38.067 13.241c-0.729-0.072-4.298-0.046-5.536-0.028-0.228 0.003-0.439 0.019-0.624 0.033-0.158 0.012-0.297 0.022-0.412 0.022 0 0-0.493 0.116-0.653 0.338-0.104 0.145-0.14 0.33-0.165 0.503-0.132 0.922-0.21 1.863-0.287 2.8-0.041 0.493-0.081 0.986-0.13 1.475l-0.47 4.739c-0.012 0.127-0.034 0.3-0.059 0.496-0.079 0.635-0.19 1.514-0.118 1.864 0.039 0.194 0.142 0.354 0.314 0.455 0.169 0.1 0.361 0.157 0.554 0.189h0.002c0.398-0.001 0.999 0.005 1.67 0.012 1.391 0.014 4.928 0.032 5.751-0.003 0.164-0.007 0.338-0.021 0.492-0.079 0.208-0.079 0.378-0.229 0.46-0.438 0.083-0.21 0.064-0.446-0.029-0.649-0.094-0.205-0.222-0.314-0.435-0.383h-7.109c0.119-1.047 0.225-2.095 0.318-3.144l0.084-0.853 0.008-0.085c0.055 0.001 0.129 0.002 0.216 0.003 0.724 0.011 4.249 0.036 4.698-0.031 0.165-0.025 0.319-0.066 0.439-0.188 0.156-0.157 0.221-0.375 0.208-0.593-0.011-0.185-0.093-0.387-0.234-0.512-0.094-0.083-0.211-0.137-0.335-0.154-0.42-0.061-3.553-0.045-4.344-0.034-0.212 0.003-0.388 0.005-0.502 0.005l0.36-4.252h3.837c0.196 0 0.399 0.007 0.606 0.013 0.501 0.016 1.020 0.033 1.485-0.040 0.166-0.025 0.308-0.082 0.428-0.203 0.147-0.148 0.228-0.371 0.216-0.579-0.012-0.212-0.125-0.413-0.291-0.543-0.126-0.099-0.254-0.143-0.412-0.159z"></path>
</symbol>
<symbol id="icon-icon-close" viewBox="0 0 32 32">
<path d="M27.179 0.918l-11.315 11.312-11.312-11.312-3.771 3.771 11.312 11.312-11.312 11.312 3.771 3.771 11.312-11.312 11.315 11.312 3.771-3.771-11.312-11.312 11.312-11.312-3.771-3.771z"></path>
</symbol>
<symbol id="icon-burger" viewBox="0 0 32 32">
<path d="M4.799 8.001c0-0.424 0.169-0.831 0.469-1.131s0.707-0.469 1.131-0.469h19.2c0.424 0 0.831 0.169 1.131 0.469s0.469 0.707 0.469 1.131-0.169 0.831-0.469 1.131c-0.3 0.3-0.707 0.469-1.131 0.469h-19.2c-0.424 0-0.831-0.169-1.131-0.469s-0.469-0.707-0.469-1.131z"></path>
<path d="M4.799 16.001c0-0.424 0.169-0.831 0.469-1.131s0.707-0.469 1.131-0.469h19.2c0.424 0 0.831 0.169 1.131 0.469s0.469 0.707 0.469 1.131c0 0.424-0.169 0.831-0.469 1.131s-0.707 0.469-1.131 0.469h-19.2c-0.424 0-0.831-0.169-1.131-0.469s-0.469-0.707-0.469-1.131z"></path>
<path d="M4.799 24.001c0-0.424 0.169-0.831 0.469-1.131s0.707-0.469 1.131-0.469h19.2c0.424 0 0.831 0.169 1.131 0.469s0.469 0.707 0.469 1.131c0 0.424-0.169 0.831-0.469 1.131s-0.707 0.469-1.131 0.469h-19.2c-0.424 0-0.831-0.169-1.131-0.469s-0.469-0.707-0.469-1.131z"></path>
</symbol>
</defs>
</svg>
