<svg width="280" height="122" viewBox="0 0 280 122" fill="none" xmlns="http://www.w3.org/2000/svg">
<path d="M47.8884 9.85554C47.3515 9.85598 46.7856 9.85644 46.2552 9.91974C40.0886 10.4341 34.4219 13.0537 30.3863 17.8259C25.9946 23.0193 24.9325 28.491 24.984 35.1026L13.2356 35.0846C12.7093 35.0842 12.1653 35.0691 11.6137 35.0538C10.0809 35.0114 8.48874 34.9673 7.05287 35.2304C6.18694 35.3891 5.43134 35.8103 4.82237 36.4442C3.75617 37.5541 3.73026 38.9561 3.79955 40.3924C3.90882 42.657 4.10332 44.9247 4.29759 47.1896C4.40328 48.4217 4.50899 49.6542 4.60084 50.8847L6.5508 76.0806L7.49957 88.2481C7.54631 88.8488 7.58364 89.4554 7.62112 90.0645C7.75511 92.242 7.89107 94.4514 8.46594 96.5347C9.45907 100.077 11.4274 103.268 14.1465 105.748C16.5229 107.905 19.3952 109.445 22.5089 110.228C25.1424 110.864 28.2021 110.792 31.0761 110.724C31.9315 110.704 32.7704 110.684 33.5768 110.684L49.3929 110.679L63.206 110.685C63.9607 110.685 64.7375 110.704 65.5238 110.722C68.0753 110.783 70.7347 110.846 73.1189 110.29C76.4729 109.51 79.8672 107.668 82.3158 105.24C84.5946 102.98 86.4152 99.962 87.2106 96.8439C87.8194 94.4584 87.9721 91.8418 88.1203 89.3037C88.168 88.4855 88.2153 87.6749 88.2773 86.8833L89.5737 70.1959L91.1902 49.7063C91.2685 48.6943 91.3697 47.6715 91.4711 46.6465C91.6909 44.4248 91.9124 42.1864 91.9074 39.9909C91.905 38.6403 91.6191 37.3805 90.6514 36.3776C89.9854 35.6865 88.8968 35.349 87.9755 35.1987C86.5946 34.9736 85.0803 35.0138 83.6154 35.0526C83.0738 35.067 82.539 35.0812 82.0201 35.0817C78.3253 35.0745 74.6291 35.0876 70.9342 35.1207L70.7754 35.123C70.8621 28.0426 69.286 21.9669 64.1957 16.7885C59.9424 12.3815 54.0897 9.88113 47.9658 9.85547L47.8884 9.85554ZM70.2805 50.2421L70.4797 50.2536C70.4849 50.2671 70.4899 50.2797 70.4946 50.2914C70.4971 50.2975 70.4995 50.3034 70.5019 50.3091C70.5106 50.3302 70.5184 50.3484 70.5253 50.3643L70.5337 50.3834C70.5701 50.4662 70.5768 50.4813 70.575 50.6145C70.5115 59.2966 68.1875 70.4745 62.0257 76.8329C56.3196 82.7211 47.4587 85.6105 39.3781 85.7705C43.1419 78.6915 49.1901 71.978 55.4289 66.9918C56.3937 66.2213 57.4037 65.5249 58.4144 64.828C59.0651 64.3793 59.716 63.9304 60.3554 63.4615C60.9761 63.006 61.8118 62.388 61.8998 61.5574C61.9805 60.7924 61.5736 60.1987 61.0946 59.6522C60.4238 59.2633 59.9326 59.1011 59.1665 59.3259C58.0789 59.6451 56.9829 60.4498 55.9938 61.176C55.7318 61.3684 55.477 61.5555 55.2322 61.7263C47.2327 67.3909 40.5856 74.7548 35.7672 83.2902C35.6047 76.3459 37.1861 70.5286 41.445 64.9428C47.8363 56.56 60.0695 51.6333 70.2805 50.2421ZM8.18221 39.4336L87.5478 39.4323C87.2661 42.1053 87.0837 44.8028 86.9015 47.4959C86.8001 48.9964 86.6986 50.4967 86.5801 51.9903L84.4431 78.7697L83.644 88.6379C83.6084 89.0664 83.5759 89.497 83.5434 89.9286C83.4152 91.631 83.2858 93.3492 82.9573 95.016C82.6201 96.7266 81.9651 98.2136 81.0781 99.7055C80.736 100.225 80.3645 100.724 79.9662 101.202C77.6654 103.951 73.8887 105.999 70.3013 106.27C68.3478 106.418 66.3379 106.381 64.3469 106.344C63.4852 106.329 62.6267 106.313 61.7776 106.312L45.3119 106.307L32.2092 106.313C31.5772 106.314 30.934 106.327 30.286 106.34C28.2988 106.381 26.2641 106.423 24.3542 106.095C21.8492 105.657 19.5081 104.554 17.5777 102.899C15.2653 100.949 13.6058 98.3382 12.8228 95.4167C12.2872 93.4803 12.1536 91.417 12.0225 89.3911C11.9896 88.8823 11.9568 88.3758 11.9178 87.8742L11.1385 77.8335L8.18221 39.4336ZM72.0429 45.5891L71.9838 45.5954C59.9363 46.989 46.221 51.9443 38.4337 61.7034C33.4285 67.9755 30.694 76.1338 31.5972 84.1673C31.7955 85.9315 32.195 87.6176 32.7709 89.2952C32.7057 89.4618 32.6263 89.6616 32.5358 89.8889C31.5471 92.3739 29.2489 98.1499 30.0482 99.8582C30.2794 100.352 30.7503 100.683 31.2609 100.845C31.4713 100.911 31.6832 100.949 31.9022 100.975C32.5771 100.864 33.201 100.724 33.6073 100.121C34.0435 99.4713 34.4902 97.9114 34.8723 96.5772C35.0543 95.9416 35.2218 95.3571 35.3665 94.9463C35.8615 93.5403 36.4235 92.1573 36.9848 90.7763L36.9913 90.7601C37.057 90.5985 37.1227 90.4368 37.1883 90.2752C47.1227 90.3045 57.7333 87.1949 64.9203 80.1037C72.9577 72.1718 74.9823 59.3816 74.9982 48.5578C74.9994 47.7043 74.9407 46.6916 74.3164 46.0389C73.9327 45.6374 73.3548 45.5165 72.8184 45.5283C72.5595 45.534 72.3007 45.5616 72.0429 45.5891ZM46.9224 14.1964C47.3073 14.1725 47.6934 14.151 48.0782 14.1537C52.7971 14.1868 57.522 16.2973 60.8381 19.623C65.3529 24.1513 66.2766 28.9566 66.2864 35.1029L48.9971 35.0935L29.5421 35.1177C29.3932 29.8345 30.2441 25.0091 33.7102 20.8374C37.0399 16.8298 41.792 14.6547 46.9224 14.1964Z" fill="#030A06"/>
<path d="M70.4796 50.2534L70.2805 50.2419C60.0694 51.6331 47.8362 56.5598 41.4449 64.9426C37.186 70.5284 35.6047 76.3457 35.7672 83.29C40.5856 74.7546 47.2326 67.3907 55.2321 61.7262C55.477 61.5553 55.7318 61.3682 55.9938 61.1758C56.9829 60.4496 58.0789 59.6449 59.1665 59.3257C59.9326 59.1009 60.4238 59.2631 61.0946 59.6521C61.5735 60.1985 61.9804 60.7922 61.8998 61.5572C61.8118 62.3878 60.976 63.0058 60.3553 63.4613C59.716 63.9303 59.065 64.3791 58.4143 64.8278C57.4036 65.5247 56.3936 66.2211 55.4288 66.9916C49.19 71.9778 43.1418 78.6913 39.378 85.7703C47.4587 85.6103 56.3196 82.721 62.0256 76.8327C68.1875 70.4743 70.5114 59.2964 70.575 50.6143C70.5767 50.4811 70.5701 50.466 70.5336 50.3832C70.5249 50.3633 70.5142 50.3391 70.5018 50.3089C70.495 50.2925 70.4877 50.2741 70.4796 50.2534ZM71.9838 45.5952L72.0429 45.5889C72.3007 45.5614 72.5595 45.5338 72.8183 45.5281C73.3547 45.5163 73.9326 45.6372 74.3163 46.0387C74.9407 46.6914 74.9993 47.7041 74.9981 48.5576C74.9822 59.3814 72.9576 72.1716 64.9202 80.1035C57.7333 87.1947 47.1227 90.3043 37.1882 90.275C37.1227 90.4366 37.057 90.5983 36.9913 90.7599L36.9847 90.7761C36.4234 92.1571 35.8614 93.5401 35.3664 94.9461C35.2217 95.3569 35.0543 95.9414 34.8723 96.5769C34.4902 97.9112 34.0435 99.4711 33.6072 100.121C33.201 100.724 32.5771 100.864 31.9021 100.975C31.6832 100.949 31.4713 100.911 31.2609 100.845C30.7503 100.683 30.2794 100.352 30.0482 99.858C29.2489 98.1497 31.547 92.3737 32.5358 89.8887C32.6262 89.6614 32.7057 89.4616 32.7709 89.295C32.195 87.6174 31.7954 85.9313 31.5971 84.1672C30.6939 76.1336 33.4285 67.9753 38.4337 61.7032C46.2209 51.9441 59.9363 46.9888 71.9838 45.5952Z" fill="#030A06"/>
<path d="M72.0433 45.5889L71.9843 45.5952C59.9368 46.9888 46.2214 51.9441 38.4342 61.7032C33.429 67.9753 30.6944 76.1336 31.5976 84.1672C31.7959 85.9313 32.1955 87.6174 32.7713 89.295C32.7062 89.4616 32.6267 89.6614 32.5363 89.8887C31.5475 92.3737 29.2494 98.1497 30.0487 99.858C30.2799 100.352 30.7508 100.683 31.2614 100.845C31.4718 100.911 31.6837 100.949 31.9026 100.975C32.5776 100.864 33.2014 100.724 33.6077 100.121C34.044 99.4711 34.4905 97.912 34.8726 96.5778C35.0547 95.9419 35.2222 95.3571 35.3669 94.9461C35.8619 93.54 36.4239 92.1572 36.9852 90.7761C36.9874 90.7707 36.9896 90.7653 36.9918 90.7599C37.0575 90.5983 37.1232 90.4366 37.1887 90.275C47.1232 90.3043 57.7338 87.1947 64.9207 80.1035C72.9581 72.1716 74.9827 59.3814 74.9986 48.5576C74.9998 47.7041 74.9412 46.6914 74.3168 46.0387C73.9331 45.6372 73.3552 45.5163 72.8188 45.5281C72.56 45.5338 72.3012 45.5614 72.0433 45.5889ZM70.281 50.2419L70.4801 50.2534C70.4882 50.2741 70.4955 50.2925 70.5023 50.3089C70.5148 50.3393 70.5254 50.3632 70.5341 50.3832C70.5706 50.466 70.5772 50.4811 70.5754 50.6143C70.5119 59.2964 68.1879 70.4743 62.0261 76.8327C56.32 82.721 47.4591 85.6103 39.3785 85.7703C43.1423 78.6913 49.1905 71.9778 55.4293 66.9916C56.3941 66.2211 57.4041 65.5247 58.4148 64.8278C59.0655 64.3791 59.7165 63.9302 60.3558 63.4613C60.9765 63.0058 61.8123 62.3878 61.9003 61.5572C61.9809 60.7922 61.574 60.1985 61.0951 59.6521C60.4243 59.2631 59.9331 59.1009 59.167 59.3257C58.0794 59.6449 56.9834 60.4496 55.9942 61.1758C55.7322 61.3682 55.4775 61.5553 55.2326 61.7262C47.2331 67.3907 40.5861 74.7546 35.7677 83.29C35.6052 76.3457 37.1865 70.5284 41.4454 64.9426C47.8367 56.5598 60.0699 51.6331 70.281 50.2419Z" fill="#030A06"/>
<path d="M227.168 75.01C226.866 66.4764 219.705 59.8036 211.173 60.1035C202.638 60.402 195.963 67.5656 196.264 76.0992C196.565 84.6341 203.729 91.3083 212.262 91.0071C220.796 90.7044 227.469 83.5422 227.168 75.01ZM211.71 64.7424C214.2 64.8433 216.217 65.4417 218.115 67.1225C220.376 69.1237 221.637 72.015 221.802 75.01C221.968 78.0076 221.025 81.0462 218.984 83.2791C217.12 85.3198 214.794 86.2331 212.069 86.3695C209.582 86.3436 207.531 85.9564 205.569 84.3247C203.278 82.4189 201.983 79.5971 201.739 76.6526C201.486 73.5909 202.288 70.4255 204.321 68.0768C206.337 65.7484 208.718 64.9469 211.71 64.7424Z" fill="#030A06"/>
<path d="M184.197 73.7293C183.18 65.2434 175.469 59.1949 166.986 60.2282C158.525 61.2588 152.496 68.9445 153.51 77.4072C154.525 85.8699 162.199 91.9129 170.664 90.9151C179.151 89.9131 185.214 82.2138 184.197 73.7293ZM167.481 64.8672C169.956 64.6654 172.199 64.9258 174.289 66.364C176.636 67.978 178.112 70.4713 178.6 73.2563C179.154 76.4189 178.634 79.8009 176.731 82.436C175.065 84.7439 172.984 85.889 170.211 86.3306C167.678 86.4602 165.441 86.3061 163.308 84.7971C161.007 83.1762 159.457 80.6966 159.008 77.9184C158.491 74.8539 159.11 71.3273 160.939 68.7782C162.547 66.5384 164.792 65.2966 167.481 64.8672Z" fill="#030A06"/>
<path d="M259.582 60.0852C259.505 60.088 259.43 60.0934 259.354 60.103C255.462 60.5624 251.957 62.4463 249.51 65.5353C246.718 69.0619 245.76 73.5331 246.311 77.9553C246.762 81.8391 248.75 85.3806 251.829 87.7921C255.477 90.6262 260.102 91.346 264.609 90.7298C267.217 90.3727 271.136 89.124 272.803 86.9538C273.272 86.3444 273.508 85.6001 273.4 84.8313C273.324 84.2915 273.087 83.7748 272.642 83.4436C272.131 83.0632 271.45 83.0155 270.843 83.1341C270 83.2985 269.244 83.8199 268.527 84.3145C268.376 84.4187 268.226 84.5217 268.078 84.62C264.931 86.2558 261.44 87.0247 257.977 85.9028C255.514 85.0917 253.479 83.3236 252.334 80.9953C251.736 79.8052 251.439 78.5415 251.175 77.2451H266.03C266.648 77.2459 267.311 77.2672 267.993 77.289C269.754 77.3455 271.64 77.4059 273.194 77.1279C273.637 77.0488 274.06 76.8116 274.382 76.4981C275.112 75.7865 275.242 74.7791 275.22 73.8071C275.137 70.0856 273.389 66.4145 270.682 63.8967C267.556 60.989 263.786 59.8958 259.582 60.0852ZM260.04 64.7351C262.294 64.4707 264.568 65.0459 266.426 66.3532C268.647 67.9318 269.814 70.1729 270.281 72.8107C268.398 72.8334 266.513 72.8283 264.628 72.8231C263.686 72.8205 262.743 72.818 261.802 72.8189L251.355 72.8325C251.833 71.2253 252.388 69.7653 253.416 68.4185C255.072 66.2496 257.365 65.0868 260.04 64.7351Z" fill="#030A06"/>
<path d="M176.848 49.0369C182.424 48.9047 188.03 49.0274 193.609 49.0178C196.787 49.0124 200.846 48.7547 203.931 49.0723C204.427 49.1241 204.823 49.2646 205.2 49.5945C205.737 50.0634 206.095 50.7709 206.114 51.4879C206.13 52.1355 205.733 52.8784 205.266 53.3133C204.909 53.6432 204.483 53.7754 204.013 53.8517C202.729 54.0589 201.311 53.9376 200.008 53.9362L193.086 53.924L193.083 79.6147C193.093 81.7795 193.367 86.5016 193.041 88.3432C192.938 88.9212 192.729 89.4979 192.33 89.9409C191.902 90.4167 191.312 90.6566 190.677 90.6702C190.012 90.6852 189.363 90.5393 188.883 90.0554C188.319 89.4897 188.111 88.6568 188.042 87.8838C187.914 86.4579 188.031 84.9489 188.047 83.5162C188.072 81.3964 188.053 79.2753 188.051 77.1555L188.068 53.9199C185.765 53.9308 177.796 54.2975 176.165 53.5573C175.568 53.2873 175.194 52.8702 174.978 52.25C174.747 51.5902 174.852 50.8868 175.186 50.2815C175.576 49.5726 176.097 49.2686 176.848 49.0369Z" fill="#030A06"/>
<path d="M140.377 60.1039C142.448 59.9867 144.472 60.1189 146.483 60.6574C148.606 61.2258 151.854 62.4786 152.952 64.4934C153.254 65.0482 153.411 65.7121 153.198 66.3256C152.98 66.9513 152.386 67.4297 151.787 67.6751C150.041 68.3908 147.854 65.9848 146.211 65.3659C143.54 64.3585 140.327 64.4144 137.727 65.6276C135.339 66.7427 133.622 68.8543 132.733 71.3067C131.701 74.153 131.614 77.865 132.924 80.6391C134.139 83.2101 136.374 85.0068 139.025 85.9433C142.059 87.0161 145.219 86.4449 148.054 85.0858C148.933 84.6101 149.73 83.9762 150.731 83.769C151.249 83.6626 151.759 83.7185 152.2 84.0239C152.743 84.4001 153.182 85.1444 153.254 85.8015C153.322 86.4177 153.082 86.9848 152.7 87.4578C151.041 89.5135 147.35 90.5468 144.837 90.8549C140.477 91.3892 135.935 90.5154 132.445 87.7332C129.165 85.169 127.078 81.3738 126.669 77.2311C126.237 73.1034 127.448 68.9715 130.039 65.7298C132.665 62.5004 136.249 60.5456 140.377 60.1039Z" fill="#030A06"/>
<path d="M233.509 52.3048C233.596 52.3007 233.682 52.2966 233.768 52.2939C234.541 52.2694 235.318 52.4766 235.864 53.0464C237.168 54.4082 236.65 58.9968 236.635 60.8752C238.409 60.8861 242.728 60.334 244.059 61.5173C244.54 61.9467 244.736 62.5411 244.737 63.1749C244.74 63.7897 244.581 64.3786 244.124 64.8121C242.881 65.9899 238.392 65.5265 236.632 65.5155C236.648 69.2889 236.138 80.9196 237.301 83.7823C239.181 88.4117 243.256 84.3399 245.58 85.4345C246.077 85.669 246.485 86.1638 246.669 86.6791C246.931 87.4125 246.698 88.0682 246.396 88.7416C246.345 88.7989 246.293 88.8548 246.241 88.9107C244.837 90.3734 242.199 90.7251 240.262 90.7523C238.014 90.785 235.889 90.4034 234.229 88.7403C233.029 87.5379 232.283 85.8885 231.918 84.2472C231.354 81.7116 231.587 78.9048 231.588 76.3189L231.595 65.5196C230.232 65.5183 228.867 65.5087 227.504 65.4869C227.279 65.3465 227.06 65.202 226.862 65.0234C226.323 64.5381 226.078 63.8143 226.059 63.1013C226.043 62.5042 226.225 61.9153 226.671 61.5023C227.772 60.4826 230.195 60.848 231.595 60.8725C231.591 58.9081 231.16 55.3856 231.902 53.6571C232.231 52.8896 232.77 52.6116 233.509 52.3048Z" fill="#030A06"/>
<path fill-rule="evenodd" clip-rule="evenodd" d="M125.356 51.5679C123.007 51.337 111.51 51.4188 107.522 51.4775C106.788 51.4882 106.108 51.5383 105.511 51.5823C105.003 51.6197 104.554 51.6527 104.184 51.6533C104.184 51.6533 102.597 52.0258 102.082 52.7408C101.746 53.209 101.631 53.8031 101.551 54.3623C101.125 57.3322 100.875 60.3624 100.627 63.3824C100.496 64.9719 100.365 66.5586 100.209 68.1322L98.6966 83.3988C98.6565 83.8068 98.5867 84.3639 98.5074 84.9964C98.2512 87.0413 97.8963 89.8737 98.1259 91.0011C98.2529 91.6259 98.584 92.142 99.1365 92.4677C99.6816 92.7891 100.299 92.9719 100.92 93.0771L100.926 93.0771C102.208 93.0745 104.142 93.0945 106.304 93.1169C110.784 93.1633 122.178 93.2197 124.827 93.1058C125.356 93.0826 125.916 93.0376 126.414 92.8495C127.082 92.5959 127.632 92.112 127.896 91.4386C128.163 90.7611 128.104 90.0018 127.802 89.3474C127.498 88.6877 127.088 88.3359 126.4 88.1151H103.499C103.881 84.7434 104.223 81.3677 104.524 77.988L104.794 75.2408L104.82 74.9685C104.999 74.9708 105.235 74.9743 105.515 74.9786C107.847 75.0138 119.2 75.0955 120.646 74.8799C121.177 74.8008 121.673 74.6672 122.062 74.276C122.564 73.7689 122.773 73.0682 122.732 72.3648C122.696 71.7677 122.432 71.1174 121.978 70.7153C121.675 70.4481 121.3 70.275 120.899 70.2191C119.547 70.0224 109.454 70.0757 106.906 70.1084C106.223 70.1172 105.655 70.1245 105.288 70.125L106.449 56.429H118.807C119.438 56.4294 120.094 56.4504 120.76 56.4718C122.373 56.5234 124.045 56.577 125.545 56.3445C126.078 56.2627 126.536 56.0801 126.923 55.6915C127.397 55.2158 127.656 54.496 127.619 53.8281C127.582 53.1465 127.215 52.4976 126.682 52.0791C126.276 51.7601 125.865 51.617 125.356 51.5679Z" fill="#030A06"/>
</svg>
