<svg width="166" height="71" viewBox="0 0 166 71" fill="none" xmlns="http://www.w3.org/2000/svg">
<path d="M29.4181 4.75297C29.1048 4.75323 28.7746 4.7535 28.4651 4.79043C24.8669 5.09058 21.5604 6.61907 19.2057 9.40363C16.6431 12.4339 16.0235 15.6267 16.0535 19.4845L9.19833 19.474C8.89126 19.4738 8.57385 19.465 8.25196 19.4561C7.35757 19.4313 6.42857 19.4056 5.59074 19.5591C5.08548 19.6517 4.64459 19.8974 4.28926 20.2673C3.66714 20.915 3.65202 21.733 3.69245 22.5711C3.75621 23.8925 3.86969 25.2156 3.98305 26.5372C4.04472 27.2562 4.1064 27.9753 4.16 28.6933L5.29779 43.395L5.85139 50.4947C5.87866 50.8452 5.90045 51.1991 5.92232 51.5545C6.0005 52.8251 6.07983 54.1143 6.41527 55.3299C6.99475 57.3967 8.14324 59.2589 9.72983 60.7055C11.1164 61.9646 12.7924 62.8629 14.6092 63.3199C16.1459 63.6908 17.9312 63.6488 19.6082 63.6094C20.1073 63.5977 20.5968 63.5861 21.0673 63.5858L30.296 63.583L38.3558 63.5865C38.7962 63.5865 39.2495 63.5973 39.7083 63.6082C41.197 63.6436 42.7488 63.6805 44.14 63.3563C46.097 62.9007 48.0776 61.8263 49.5063 60.4096C50.836 59.0907 51.8983 57.3297 52.3624 55.5103C52.7177 54.1184 52.8068 52.5916 52.8932 51.1106C52.9211 50.6332 52.9487 50.1602 52.9848 49.6983L53.7413 39.9613L54.6845 28.0057C54.7302 27.4152 54.7892 26.8184 54.8484 26.2203C54.9767 24.924 55.1059 23.6179 55.103 22.3368C55.1016 21.5488 54.9347 20.8137 54.3701 20.2285C53.9815 19.8252 53.3463 19.6283 52.8087 19.5406C52.003 19.4092 51.1194 19.4327 50.2647 19.4553C49.9486 19.4637 49.6365 19.472 49.3338 19.4723C47.1779 19.4681 45.0212 19.4757 42.8652 19.4951L42.7726 19.4964C42.8232 15.365 41.9035 11.8199 38.9333 8.79834C36.4516 6.22688 33.0365 4.7679 29.4632 4.75293L29.4181 4.75297ZM42.4838 28.3183L42.6 28.3251C42.6031 28.333 42.606 28.3403 42.6087 28.3471C42.6102 28.3507 42.6116 28.3541 42.6129 28.3574C42.618 28.3698 42.6226 28.3804 42.6266 28.3896L42.6315 28.4008C42.6528 28.4491 42.6567 28.4579 42.6556 28.5357C42.6186 33.6016 41.2625 40.1238 37.6671 43.834C34.3377 47.2697 29.1674 48.9556 24.4524 49.049C26.6485 44.9184 30.1776 41.0011 33.8179 38.0917C34.3809 37.6421 34.9702 37.2358 35.5599 36.8291C35.9396 36.5673 36.3195 36.3054 36.6925 36.0318C37.0547 35.766 37.5424 35.4054 37.5937 34.9207C37.6407 34.4744 37.4033 34.1279 37.1239 33.8091C36.7325 33.5822 36.4458 33.4875 35.9988 33.6187C35.3642 33.805 34.7247 34.2745 34.1476 34.6982C33.9947 34.8105 33.846 34.9196 33.7031 35.0193C29.0355 38.3246 25.157 42.6214 22.3454 47.6017C22.2506 43.5498 23.1733 40.1554 25.6584 36.8961C29.3877 32.0048 36.5257 29.1301 42.4838 28.3183ZM6.24971 22.0116L52.5592 22.0109C52.3948 23.5706 52.2884 25.1446 52.1821 26.716C52.1229 27.5915 52.0636 28.4669 51.9945 29.3384L50.7476 44.9641L50.2813 50.7221C50.2605 50.9721 50.2416 51.2234 50.2226 51.4752C50.1478 52.4686 50.0723 53.4711 49.8806 54.4437C49.6839 55.4418 49.3017 56.3095 48.7841 57.18C48.5845 57.483 48.3678 57.7746 48.1353 58.0533C46.7929 59.6575 44.5891 60.8524 42.4959 61.0107C41.3561 61.0967 40.1833 61.0752 39.0215 61.0538C38.5188 61.0445 38.0178 61.0353 37.5224 61.0349L27.9147 61.032L20.2693 61.0356C19.9006 61.0358 19.5253 61.0435 19.1471 61.0514C17.9876 61.0754 16.8004 61.0999 15.686 60.908C14.2243 60.6528 12.8583 60.009 11.7319 59.0436C10.3827 57.9058 9.41434 56.3822 8.95749 54.6775C8.64496 53.5476 8.56702 52.3437 8.4905 51.1616C8.47128 50.8647 8.45215 50.5692 8.42941 50.2765L7.97469 44.4178L6.24971 22.0116ZM43.5121 25.6033L43.4777 25.607C36.448 26.4202 28.4452 29.3116 23.9013 35.0059C20.9808 38.6657 19.3852 43.426 19.9122 48.1136C20.028 49.1429 20.2611 50.1268 20.5971 51.1057C20.5591 51.2029 20.5127 51.3194 20.4599 51.4521C19.883 52.9021 18.5421 56.2723 19.0084 57.2691C19.1433 57.5571 19.4181 57.7503 19.716 57.8452C19.8388 57.8837 19.9624 57.9058 20.0902 57.9207C20.484 57.8559 20.8481 57.7746 21.0851 57.4224C21.3397 57.0434 21.6003 56.1332 21.8233 55.3547C21.9295 54.9838 22.0272 54.6427 22.1116 54.4031C22.4004 53.5826 22.7284 52.7757 23.0559 51.9698L23.0597 51.9604C23.098 51.8661 23.1364 51.7718 23.1746 51.6775C28.9713 51.6946 35.1626 49.8801 39.3561 45.7424C44.0459 41.1142 45.2272 33.6512 45.2365 27.3356C45.2372 26.8376 45.203 26.2467 44.8387 25.8658C44.6148 25.6315 44.2776 25.561 43.9646 25.5679C43.8136 25.5712 43.6626 25.5873 43.5121 25.6033ZM28.8544 7.28582C29.079 7.27192 29.3043 7.25937 29.5289 7.26094C32.2823 7.28026 35.0392 8.51173 36.9742 10.4522C39.6085 13.0945 40.1475 15.8984 40.1532 19.4847L30.065 19.4792L18.7131 19.4933C18.6262 16.4106 19.1227 13.595 21.1452 11.1608C23.088 8.82244 25.8609 7.55325 28.8544 7.28582Z" fill="#030A06"/>
<path d="M42.6 28.325L42.4838 28.3183C36.5257 29.1301 29.3877 32.0048 25.6584 36.8961C23.1733 40.1554 22.2506 43.5497 22.3455 47.6017C25.157 42.6213 29.0355 38.3245 33.7031 35.0193C33.846 34.9196 33.9947 34.8105 34.1476 34.6982C34.7247 34.2745 35.3642 33.8049 35.9988 33.6187C36.4459 33.4875 36.7325 33.5822 37.1239 33.8091C37.4034 34.1279 37.6408 34.4743 37.5937 34.9207C37.5424 35.4054 37.0547 35.766 36.6925 36.0318C36.3195 36.3054 35.9396 36.5673 35.56 36.8291C34.9702 37.2357 34.3809 37.6421 33.8179 38.0917C30.1776 41.0011 26.6485 44.9184 24.4524 49.049C29.1674 48.9556 34.3377 47.2697 37.6671 43.8339C41.2625 40.1238 42.6186 33.6015 42.6556 28.5356C42.6567 28.4579 42.6528 28.4491 42.6315 28.4007C42.6264 28.3892 42.6202 28.375 42.613 28.3574C42.609 28.3478 42.6047 28.3371 42.6 28.325ZM43.4777 25.607L43.5121 25.6033C43.6626 25.5873 43.8136 25.5712 43.9646 25.5678C44.2776 25.5609 44.6148 25.6315 44.8387 25.8658C45.203 26.2466 45.2372 26.8375 45.2365 27.3355C45.2273 33.6512 44.0459 41.1142 39.3561 45.7424C35.1626 49.8801 28.9713 51.6945 23.1746 51.6774C23.1364 51.7717 23.098 51.8661 23.0597 51.9604L23.0559 51.9698C22.7284 52.7757 22.4004 53.5826 22.1116 54.403C22.0272 54.6427 21.9295 54.9837 21.8233 55.3546C21.6003 56.1331 21.3397 57.0433 21.0851 57.4224C20.8481 57.7745 20.484 57.8558 20.0902 57.9207C19.9624 57.9057 19.8388 57.8836 19.7161 57.8451C19.4181 57.7503 19.1433 57.5571 19.0084 57.2691C18.5421 56.2723 19.883 52.902 20.4599 51.452C20.5127 51.3194 20.5591 51.2028 20.5971 51.1056C20.2611 50.1268 20.028 49.1429 19.9123 48.1135C19.3852 43.426 20.9808 38.6657 23.9013 35.0059C28.4452 29.3115 36.448 26.4202 43.4777 25.607Z" fill="#030A06"/>
<path d="M43.5123 25.6033L43.4778 25.607C36.4482 26.4202 28.4453 29.3115 23.9015 35.0059C20.981 38.6657 19.3854 43.426 19.9124 48.1135C20.0281 49.1429 20.2612 50.1268 20.5973 51.1056C20.5592 51.2028 20.5129 51.3194 20.4601 51.452C19.8832 52.902 18.5422 56.2723 19.0086 57.2691C19.1435 57.5571 19.4183 57.7503 19.7162 57.8451C19.839 57.8836 19.9626 57.9057 20.0903 57.9207C20.4842 57.8558 20.8482 57.7745 21.0853 57.4224C21.3398 57.0433 21.6003 56.1336 21.8233 55.3551C21.9296 54.9841 22.0273 54.6428 22.1118 54.403C22.4006 53.5825 22.7285 52.7757 23.056 51.9698C23.0573 51.9667 23.0586 51.9635 23.0599 51.9604C23.0982 51.8661 23.1365 51.7717 23.1748 51.6774C28.9715 51.6945 35.1627 49.8801 39.3563 45.7424C44.046 41.1142 45.2274 33.6512 45.2367 27.3355C45.2374 26.8375 45.2032 26.2466 44.8388 25.8658C44.615 25.6315 44.2777 25.5609 43.9648 25.5678C43.8137 25.5712 43.6627 25.5873 43.5123 25.6033ZM42.484 28.3183L42.6002 28.325C42.6048 28.3371 42.6091 28.3478 42.6131 28.3574C42.6204 28.3752 42.6266 28.3891 42.6317 28.4007C42.6529 28.4491 42.6568 28.4579 42.6558 28.5356C42.6187 33.6015 41.2627 40.1238 37.6673 43.8339C34.3378 47.2697 29.1675 48.9556 24.4525 49.049C26.6487 44.9184 30.1778 41.0011 33.8181 38.0917C34.381 37.6421 34.9704 37.2357 35.5601 36.8291C35.9398 36.5673 36.3196 36.3054 36.6927 36.0318C37.0549 35.766 37.5425 35.4054 37.5938 34.9207C37.6409 34.4743 37.4035 34.1279 37.124 33.8091C36.7326 33.5822 36.446 33.4875 35.999 33.6187C35.3644 33.8049 34.7249 34.2745 34.1477 34.6982C33.9948 34.8105 33.8462 34.9196 33.7033 35.0193C29.0356 38.3245 25.1571 42.6213 22.3456 47.6017C22.2508 43.5497 23.1735 40.1554 25.6585 36.8961C29.3878 32.0048 36.5259 29.1301 42.484 28.3183Z" fill="#030A06"/>
<path d="M134.027 42.7709C133.851 37.7916 129.673 33.8981 124.694 34.0731C119.714 34.2473 115.819 38.4272 115.995 43.4065C116.17 48.3866 120.35 52.281 125.33 52.1052C130.309 51.9286 134.203 47.7495 134.027 42.7709ZM125.008 36.7798C126.46 36.8387 127.637 37.1879 128.744 38.1686C130.064 39.3363 130.8 41.0234 130.896 42.7709C130.993 44.52 130.443 46.293 129.252 47.5959C128.164 48.7867 126.807 49.3196 125.217 49.3991C123.766 49.384 122.569 49.1581 121.424 48.206C120.087 47.094 119.331 45.4475 119.189 43.7294C119.042 41.9429 119.51 40.0959 120.696 38.7254C121.872 37.3669 123.262 36.8992 125.008 36.7798Z" fill="#030A06"/>
<path d="M108.953 42.024C108.36 37.0725 103.861 33.5432 98.9108 34.1462C93.974 34.7475 90.4561 39.2321 91.048 44.17C91.6399 49.108 96.118 52.6341 101.057 52.0518C106.009 51.4672 109.547 46.9747 108.953 42.024ZM99.1996 36.853C100.644 36.7352 101.953 36.8872 103.172 37.7263C104.542 38.6681 105.403 40.1229 105.688 41.748C106.011 43.5933 105.707 45.5668 104.597 47.1043C103.625 48.4509 102.411 49.1191 100.793 49.3768C99.315 49.4524 98.0094 49.3625 96.7647 48.482C95.4223 47.5362 94.5178 46.0894 94.2556 44.4683C93.954 42.6802 94.3154 40.6225 95.3828 39.135C96.3208 37.8282 97.6306 37.1035 99.1996 36.853Z" fill="#030A06"/>
<path d="M152.94 34.0619C152.896 34.0635 152.852 34.0667 152.807 34.0723C150.536 34.3403 148.491 35.4396 147.064 37.242C145.435 39.2998 144.875 41.9087 145.197 44.4891C145.46 46.7552 146.62 48.8217 148.417 50.2288C150.545 51.8825 153.244 52.3024 155.874 51.9429C157.395 51.7345 159.682 51.0059 160.655 49.7396C160.928 49.3841 161.066 48.9498 161.003 48.5011C160.959 48.1862 160.82 47.8847 160.561 47.6914C160.263 47.4695 159.865 47.4417 159.511 47.5109C159.019 47.6068 158.578 47.911 158.16 48.1996C158.071 48.2604 157.984 48.3205 157.898 48.3779C156.061 49.3324 154.024 49.781 152.004 49.1263C150.567 48.6531 149.379 47.6214 148.711 46.2628C148.362 45.5684 148.189 44.8311 148.035 44.0746H156.702C157.063 44.0751 157.45 44.0875 157.848 44.1003C158.876 44.1332 159.976 44.1685 160.883 44.0062C161.142 43.9601 161.388 43.8217 161.576 43.6388C162.002 43.2236 162.078 42.6357 162.065 42.0686C162.017 39.8971 160.997 37.755 159.417 36.2859C157.593 34.5893 155.393 33.9514 152.94 34.0619ZM153.207 36.7751C154.523 36.6208 155.85 36.9565 156.934 37.7193C158.23 38.6404 158.91 39.948 159.183 41.4872C158.084 41.5004 156.984 41.4974 155.884 41.4944C155.335 41.4929 154.785 41.4914 154.236 41.4919L148.14 41.4999C148.419 40.5621 148.743 39.7102 149.342 38.9243C150.309 37.6588 151.647 36.9803 153.207 36.7751Z" fill="#030A06"/>
<path d="M104.666 27.6156C107.919 27.5385 111.19 27.6101 114.446 27.6045C116.3 27.6013 118.668 27.451 120.468 27.6363C120.758 27.6665 120.989 27.7485 121.209 27.941C121.522 28.2146 121.731 28.6274 121.742 29.0458C121.751 29.4236 121.52 29.8571 121.247 30.1109C121.039 30.3033 120.791 30.3805 120.516 30.425C119.767 30.5459 118.94 30.4752 118.179 30.4744L114.14 30.4672L114.138 45.4576C114.144 46.7208 114.304 49.4761 114.114 50.5507C114.054 50.8879 113.932 51.2244 113.699 51.4829C113.45 51.7605 113.105 51.9005 112.735 51.9085C112.346 51.9172 111.968 51.8321 111.688 51.5497C111.359 51.2196 111.238 50.7336 111.197 50.2826C111.122 49.4506 111.191 48.5701 111.2 47.7341C111.215 46.4972 111.203 45.2596 111.203 44.0227L111.212 30.4648C109.869 30.4712 105.219 30.6851 104.267 30.2532C103.919 30.0957 103.701 29.8523 103.574 29.4904C103.44 29.1054 103.501 28.695 103.696 28.3418C103.923 27.9282 104.227 27.7508 104.666 27.6156Z" fill="#030A06"/>
<path d="M83.3848 34.0728C84.5933 34.0044 85.7741 34.0816 86.9475 34.3958C88.1865 34.7275 90.0814 35.4585 90.7219 36.6341C90.898 36.9578 90.9899 37.3452 90.8657 37.7031C90.7386 38.0682 90.3918 38.3474 90.0424 38.4906C89.0234 38.9082 87.7476 37.5043 86.789 37.1432C85.2301 36.5553 83.3553 36.588 81.8386 37.2959C80.4452 37.9465 79.4434 39.1786 78.9246 40.6096C78.3225 42.2704 78.2717 44.4363 79.0361 46.055C79.7449 47.5552 81.0489 48.6035 82.5958 49.15C84.3659 49.776 86.2102 49.4427 87.8643 48.6497C88.3769 48.3721 88.8424 48.0022 89.4264 47.8813C89.7282 47.8192 90.0262 47.8519 90.2835 48.03C90.6002 48.2496 90.8563 48.6839 90.8983 49.0673C90.9378 49.4268 90.798 49.7577 90.5749 50.0337C89.6072 51.2332 87.4531 51.8361 85.9871 52.0159C83.4428 52.3277 80.7926 51.8178 78.7564 50.1944C76.8424 48.6982 75.6245 46.4837 75.3863 44.0665C75.1341 41.6579 75.8404 39.247 77.3523 37.3555C78.8849 35.4712 80.9762 34.3306 83.3848 34.0728Z" fill="#030A06"/>
<path d="M137.727 29.5221C137.778 29.5198 137.828 29.5174 137.878 29.5158C138.329 29.5015 138.782 29.6224 139.101 29.9548C139.862 30.7495 139.559 33.4268 139.551 34.5229C140.586 34.5293 143.106 34.2071 143.882 34.8976C144.163 35.1481 144.278 35.4949 144.279 35.8648C144.28 36.2235 144.187 36.5672 143.921 36.8201C143.195 37.5073 140.576 37.2369 139.549 37.2305C139.559 39.4322 139.261 46.2188 139.94 47.8891C141.036 50.5904 143.414 48.2145 144.77 48.8532C145.06 48.99 145.298 49.2787 145.406 49.5794C145.558 50.0073 145.422 50.3899 145.247 50.7828C145.216 50.8163 145.186 50.8489 145.156 50.8815C144.337 51.735 142.797 51.9402 141.667 51.9561C140.356 51.9752 139.115 51.7525 138.147 50.7821C137.447 50.0805 137.012 49.118 136.798 48.1604C136.469 46.6809 136.605 45.0431 136.606 43.5342L136.61 37.2329C135.815 37.2321 135.018 37.2266 134.223 37.2138C134.092 37.1319 133.964 37.0476 133.848 36.9434C133.534 36.6602 133.391 36.2378 133.38 35.8218C133.37 35.4735 133.477 35.1298 133.737 34.8888C134.38 34.2938 135.793 34.507 136.61 34.5213C136.608 33.3751 136.356 31.3198 136.789 30.3112C136.981 29.8634 137.296 29.7011 137.727 29.5221Z" fill="#030A06"/>
<path fill-rule="evenodd" clip-rule="evenodd" d="M74.6198 29.0927C73.2492 28.958 66.541 29.0057 64.2137 29.0399C63.7859 29.0462 63.389 29.0754 63.0405 29.1011C62.7439 29.1229 62.4824 29.1422 62.2665 29.1425C62.2665 29.1425 61.3403 29.3599 61.04 29.7771C60.8437 30.0503 60.7765 30.3969 60.7297 30.7232C60.4811 32.4561 60.3356 34.2242 60.1905 35.9864C60.1142 36.9139 60.038 37.8397 59.947 38.7579L59.0644 47.6659C59.041 47.904 59.0002 48.229 58.954 48.5981C58.8045 49.7912 58.5974 51.444 58.7314 52.1018C58.8055 52.4664 58.9987 52.7675 59.3211 52.9575C59.6391 53.1451 59.9996 53.2517 60.3617 53.3131L60.365 53.3131C61.1134 53.3116 62.2419 53.3233 63.503 53.3363C66.1175 53.3634 72.7657 53.3963 74.3116 53.3298C74.6198 53.3163 74.9466 53.2901 75.2372 53.1803C75.6273 53.0324 75.948 52.75 76.1023 52.357C76.2578 51.9617 76.2233 51.5187 76.0471 51.1369C75.8699 50.7519 75.6305 50.5467 75.229 50.4178H61.8665C62.0894 48.4504 62.2888 46.4807 62.4644 44.5087L62.6223 42.9057L62.6376 42.7468C62.742 42.7482 62.8794 42.7502 63.0428 42.7527C64.4038 42.7733 71.028 42.821 71.872 42.6951C72.1817 42.649 72.4711 42.571 72.6977 42.3427C72.9911 42.0468 73.1129 41.638 73.0887 41.2276C73.0681 40.8792 72.914 40.4998 72.6492 40.2651C72.4724 40.1092 72.2534 40.0082 72.0196 39.9756C71.2307 39.8608 65.3415 39.8919 63.8547 39.911C63.456 39.9161 63.1246 39.9204 62.9105 39.9207L63.5879 31.9291H70.799C71.1666 31.9294 71.5496 31.9416 71.9384 31.9541C72.8796 31.9842 73.855 32.0155 74.7302 31.8798C75.0414 31.8321 75.3083 31.7255 75.5342 31.4988C75.8107 31.2212 75.9619 30.8012 75.9407 30.4115C75.9191 30.0138 75.705 29.6352 75.3939 29.391C75.1569 29.2048 74.9168 29.1213 74.6198 29.0927Z" fill="#030A06"/>
</svg>
