<svg aria-hidden="true" style="position:absolute;width:0;height:0;overflow:hidden" xmlns="http://www.w3.org/2000/svg">
  <defs>
    <symbol id="icon-Instagram" viewBox="0 0 32 32">
      <path d="M16.313 6.771c3.078 0 3.442 0.014 4.652 0.068 1.125 0.050 1.732 0.238 2.137 0.396 0.536 0.207 0.922 0.459 1.323 0.86 0.405 0.405 0.652 0.788 0.864 1.323 0.158 0.405 0.346 1.017 0.396 2.137 0.054 1.215 0.068 1.579 0.068 4.653s-0.014 3.442-0.068 4.653c-0.050 1.125-0.238 1.732-0.396 2.137-0.207 0.536-0.459 0.922-0.86 1.323-0.405 0.405-0.788 0.652-1.323 0.864-0.405 0.158-1.017 0.346-2.137 0.396-1.215 0.054-1.58 0.068-4.653 0.068s-3.442-0.014-4.653-0.068c-1.125-0.050-1.732-0.238-2.137-0.396-0.536-0.207-0.922-0.459-1.323-0.86-0.405-0.405-0.652-0.788-0.864-1.323-0.158-0.405-0.346-1.017-0.396-2.137-0.054-1.215-0.068-1.579-0.068-4.653s0.014-3.442 0.068-4.653c0.050-1.125 0.238-1.732 0.396-2.137 0.207-0.536 0.459-0.922 0.86-1.323 0.405-0.405 0.788-0.652 1.323-0.864 0.405-0.158 1.017-0.346 2.137-0.396 1.21-0.054 1.575-0.068 4.653-0.068h0.001zM16.313 4.697c-3.127 0-3.518 0.014-4.747 0.068-1.224 0.054-2.065 0.252-2.794 0.536-0.76 0.297-1.404 0.688-2.042 1.332-0.644 0.639-1.035 1.282-1.332 2.038-0.284 0.734-0.482 1.57-0.536 2.794-0.054 1.233-0.068 1.624-0.068 4.751s0.014 3.518 0.068 4.747c0.054 1.224 0.252 2.065 0.536 2.794 0.297 0.76 0.688 1.404 1.332 2.042 0.639 0.639 1.282 1.035 2.038 1.328 0.734 0.284 1.57 0.482 2.794 0.536 1.228 0.054 1.62 0.068 4.747 0.068s3.519-0.014 4.747-0.068c1.224-0.054 2.065-0.252 2.794-0.536 0.756-0.292 1.4-0.688 2.038-1.328s1.035-1.282 1.328-2.038c0.284-0.734 0.482-1.57 0.536-2.794 0.054-1.228 0.068-1.62 0.068-4.747s-0.014-3.518-0.068-4.747c-0.054-1.224-0.252-2.065-0.536-2.794-0.284-0.765-0.675-1.408-1.318-2.047-0.639-0.639-1.282-1.035-2.038-1.327-0.734-0.284-1.57-0.482-2.794-0.536-1.232-0.058-1.624-0.072-4.751-0.072l-0.001 0.001z"></path>
      <path d="M16.313 10.299c-3.266 0-5.917 2.65-5.917 5.917s2.65 5.917 5.917 5.917c3.267 0 5.917-2.65 5.917-5.917s-2.65-5.917-5.917-5.917zM16.313 20.053c-2.119 0-3.838-1.719-3.838-3.838s1.718-3.838 3.838-3.838c2.119 0 3.838 1.718 3.838 3.838s-1.718 3.838-3.838 3.838z"></path>
      <path d="M23.844 10.065c0 0.763-0.618 1.381-1.381 1.381s-1.381-0.618-1.381-1.381 0.619-1.381 1.381-1.381c0.763 0 1.381 0.618 1.381 1.381z"></path>
    </symbol>
    <symbol id="icon-LinkedIn" viewBox="0 0 32 32">
      <path d="M25.675 4.696h-18.72c-1.188 0-2.16 0.972-2.16 2.16v18.72c0 1.188 0.972 2.16 2.16 2.16h18.72c1.188 0 2.16-0.972 2.16-2.16v-18.72c0-1.188-0.972-2.16-2.16-2.16zM13.435 23.416h-2.88v-10.080h2.88v10.080zM11.995 11.896c-0.796 0-1.44-0.644-1.44-1.44s0.644-1.44 1.44-1.44c0.796 0 1.44 0.644 1.44 1.44s-0.644 1.44-1.44 1.44zM23.515 23.416h-2.88v-5.76c0-0.796-0.644-1.44-1.44-1.44s-1.44 0.644-1.44 1.44v5.76h-2.88v-10.080h2.88v1.786c0.594-0.814 1.503-1.786 2.52-1.786 1.791 0 3.24 1.611 3.24 3.6v6.48z"></path>
    </symbol>
    <symbol id="icon-Youtube" viewBox="0 0 32 32">
      <path d="M28.594 10.076c-0.146-0.541-0.431-1.034-0.826-1.431s-0.888-0.683-1.429-0.83c-2.004-0.55-10.024-0.559-10.024-0.559s-8.018-0.009-10.024 0.517c-0.54 0.154-1.032 0.444-1.428 0.842s-0.683 0.892-0.833 1.433c-0.529 2.004-0.534 6.162-0.534 6.162s-0.005 4.178 0.52 6.162c0.294 1.097 1.158 1.964 2.257 2.259 2.025 0.55 10.022 0.559 10.022 0.559s8.019 0.009 10.024-0.516c0.541-0.147 1.034-0.432 1.431-0.828s0.683-0.888 0.831-1.429c0.53-2.003 0.534-6.159 0.534-6.159s0.026-4.179-0.521-6.184zM13.75 20.063l0.006-7.68 6.665 3.846-6.671 3.834z"></path>
    </symbol>
  </defs>
</svg>