<svg aria-hidden="true" style="position:absolute;width:0;height:0;overflow:hidden" xmlns="http://www.w3.org/2000/svg">
  <defs>
<symbol id="icon-filled-star" viewBox="0 0 30 32">
<path d="M6.882 19.997l-2.27 9.832c-0.070 0.298-0.049 0.61 0.061 0.895s0.303 0.531 0.555 0.705c0.252 0.174 0.55 0.268 0.856 0.27s0.605-0.089 0.859-0.26l8.297-5.531 8.297 5.531c0.26 0.172 0.566 0.261 0.877 0.254s0.613-0.109 0.865-0.292c0.252-0.183 0.441-0.44 0.543-0.734s0.111-0.613 0.026-0.913l-2.787-9.752 6.912-6.22c0.221-0.199 0.38-0.459 0.455-0.747s0.064-0.592-0.031-0.874-0.272-0.53-0.507-0.713c-0.235-0.183-0.519-0.293-0.816-0.317l-8.687-0.692-3.759-8.322c-0.12-0.268-0.315-0.496-0.561-0.655s-0.534-0.245-0.827-0.245c-0.293 0-0.581 0.085-0.827 0.245s-0.441 0.387-0.561 0.655l-3.759 8.322-8.687 0.69c-0.292 0.023-0.571 0.13-0.804 0.307s-0.41 0.418-0.509 0.694c-0.1 0.275-0.118 0.574-0.052 0.859s0.212 0.546 0.422 0.75l6.421 6.258z"></path>
</symbol>
<symbol id="icon-hollow-star" viewBox="0 0 30 32">
<path d="M6.882 19.997l-2.27 9.832c-0.070 0.298-0.049 0.61 0.061 0.895s0.303 0.531 0.555 0.705c0.252 0.174 0.55 0.268 0.856 0.27s0.605-0.089 0.859-0.26l8.297-5.531 8.297 5.531c0.26 0.172 0.566 0.261 0.877 0.254s0.613-0.109 0.865-0.292c0.252-0.183 0.441-0.44 0.543-0.734s0.111-0.613 0.026-0.913l-2.787-9.752 6.912-6.22c0.221-0.199 0.38-0.459 0.455-0.747s0.064-0.592-0.031-0.874-0.272-0.53-0.507-0.713c-0.235-0.183-0.519-0.293-0.816-0.317l-8.687-0.692-3.759-8.322c-0.12-0.268-0.315-0.496-0.561-0.655s-0.534-0.245-0.827-0.245c-0.293 0-0.581 0.085-0.827 0.245s-0.441 0.387-0.561 0.655l-3.759 8.322-8.687 0.69c-0.292 0.023-0.571 0.13-0.804 0.307s-0.41 0.418-0.509 0.694c-0.1 0.275-0.118 0.574-0.052 0.859s0.212 0.546 0.422 0.75l6.421 6.258zM11.229 13.405c0.272-0.021 0.533-0.116 0.756-0.273s0.4-0.371 0.512-0.62l2.741-6.066 2.741 6.066c0.112 0.249 0.288 0.463 0.512 0.62s0.484 0.251 0.756 0.273l6.053 0.48-4.984 4.486c-0.433 0.39-0.605 0.99-0.446 1.551l1.909 6.682-5.693-3.796c-0.25-0.168-0.544-0.257-0.845-0.257s-0.595 0.089-0.845 0.257l-5.949 3.966 1.6-6.927c0.059-0.255 0.051-0.52-0.023-0.771s-0.211-0.479-0.398-0.661l-4.629-4.514 6.232-0.497z"></path>
</symbol>
  </defs>
</svg>
